<svg xmlns="http://www.w3.org/2000/svg" data-name="Layer 1" width="822.842" height="580.81" viewBox="0 0 822.842 580.81">
 <path
  d="M623.476 289.042a186.535 186.535 0 01-5.05 43.22c-19.49 81.88-93.11 142.78-180.95 142.78-102.72 0-186-83.28-186-186a185.977 185.977 0 0199.31-164.6c.01 0 .02-.01.03-.01q7.56-4.005 15.54-7.3a187.031 187.031 0 0193.06-12.81c2.71.32 5.41.7 8.08 1.13q6.525 1.065 12.88 2.57 1.604.36 3.18.78c.21.05.41.11.62.16s.41.1.61.16h.01c.4.1.8.2 1.2.31.98.27 1.96.54 2.94.83q4.545 1.29 8.99 2.83c.47.16.93.32 1.4.48.24.09.47.17.71.26.25.08.49.17.74.26a184.001 184.001 0 0119.5 8.35l-9.75-3.14c31.19 15.99 58.19 44.22 80.72 84.33a5.006 5.006 0 019.17-1.84 4.745 4.745 0 01.35.67 5 5 0 01-2.6 6.58.498.498 0 01-.11.04l16.02 41.65a7.742 7.742 0 013.34.63 14.713 14.713 0 011.37-3.99c.32 1.38.62 2.77.91 4.17.1.52.21 1.03.3 1.55v.01q.824 4.125 1.44 8.33c.04.23.07.45.11.68v.01c.16 1.1.31 2.21.45 3.32q1.11 8.805 1.39 17.86c.06 1.91.09 3.82.09 5.74z"
  fill="#f2f2f2" />
 <path
  d="M614.19 259.713c1.622 41.518 3.246 83.105 1.373 124.644-1.86 41.252-7.73 82.21-12.871 123.144l-8.737 69.56h3c.01-6.88-6.55-12.934-13.471-11.87-6.617 1.018-11.09 8.09-9.631 14.505l2.741-1.156c-4.559-9.197-11.58-21.085-23.677-19.643-5.686.677-9.349 4.965-13.498 8.423a31.786 31.786 0 01-32.268 4.543c-1.753-.762-3.282 1.822-1.514 2.59a35.124 35.124 0 0029.502-.801 32.89 32.89 0 006.401-4.21c2.078-1.732 3.947-3.735 6.166-5.293 4.828-3.39 10.497-2.737 15.246.489 5.329 3.619 8.278 9.82 11.052 15.416.782 1.577 3.105.441 2.741-1.156a9.216 9.216 0 017.118-10.746c5.163-.875 10.099 3.843 10.092 8.908-.003 1.986 2.766 1.86 3 0 5.184-41.272 10.56-82.526 15.506-123.828 2.439-20.364 4.576-40.771 5.718-61.253 1.157-20.743 1.385-41.528 1.125-62.299-.293-23.333-1.204-46.652-2.115-69.967-.075-1.924-3.075-1.934-3 0z"
  fill="#ccc" />
 <path
  d="M754.376 299.272a549.218 549.218 0 01-55.05 35.2c-5.2 2.86-10.3 5.49-15.1 7.72-7.44 3.46-14.17 5.97-19.43 6.9l-.01.01c-.77.14-1.52.24-2.23.31-6.53.63-11.88-3.29-16.24-9.73-6.08-8.96-10.25-22.8-13.06-36.08-.56-2.62-1.06-5.21-1.51-7.74-2.1-11.69-3.15-22.03-3.58-26.91a15.159 15.159 0 01-5.42-2.85v-.01a9.05 9.05 0 01-.75-.65 14.623 14.623 0 01-1.51-1.64 15.116 15.116 0 01-3.35-9.53 15.238 15.238 0 011.65-6.9v-.01a15.293 15.293 0 1126.28 15.52l5.39 13.16.01.01 15.98 38.98v.01l.17.41 59.03-35.29 8.24-4.93 1.59-.95a15.671 15.671 0 0121.39 2.13h.01a15.717 15.717 0 01-2.5 22.86z"
  fill="#ffb6b6" />
 <path
  d="M617.356 260.732l-1.87.7q-1.936-5.19-3.94-10.21c-27.74-69.49-64.86-114.55-110.53-134.19-.69-.3-1.38-.59-2.08-.87-.93-.39-1.87-.77-2.81-1.12-1.52-.6-3.06-1.16-4.6-1.69q-3.09-1.065-6.19-1.97c-.5-.15-1.01-.3-1.51-.43-1.79-.51-3.57-.98-5.36-1.39-42.73-10.23-86.49.43-127.65 14.87-.01 0-.02.01-.03.01-12.57 4.41-24.91 9.18-36.89 13.81-44.3 17.12-83.25 32.17-110.4 19.16-1.04-.49-2.06-1.03-3.06-1.61a48.79 48.79 0 01-3.19-2.03c-.13-.09-.26-.18-.38-.28-1.12-.8-2.22-1.66-3.29-2.58a45.649 45.649 0 01-4.47-4.42c-.27-.3-.54-.6-.8-.91-.05-.07-.11-.14-.16-.2a47.987 47.987 0 01-5.36-7.98c-9.38-17.4-8.94-40.4-8.51-62.8.46-24.24.91-47.29-11.35-60.7a30.456 30.456 0 00-5.94-5.06 33.04 33.04 0 00-6.99-3.48c-26.37-9.56-71.71 9.25-135.04 56.05-2.1 1.55-4.21 3.13-6.35 4.74l-1.21-1.6c2.14-1.61 4.26-3.2 6.36-4.75 29.95-22.12 56.12-38.16 77.9-47.75 24.9-10.97 44.77-13.81 59.23-8.49a35.115 35.115 0 017.2 3.6 33.53 33.53 0 016.16 5.18c12.96 13.92 12.5 37.5 12.03 62.29-.4 21.07-.82 42.68 7.05 59.37a47.314 47.314 0 006.62 10.41c.16.19.33.38.49.57a45.248 45.248 0 004.45 4.42c.93.81 1.89 1.56 2.87 2.27a39.833 39.833 0 003.55 2.31 41.25 41.25 0 004.24 2.16c26.39 11.64 64.44-3.07 107.63-19.76 17.12-6.62 34.94-13.5 53.18-19.25 30.31-9.56 61.78-15.99 93.06-12.81 2.5.24 5.01.56 7.51.95 4.51.68 9.01 1.57 13.5 2.7 1.05.26 2.09.54 3.13.83.41.1.81.22 1.22.34.4.11.81.22 1.21.34 2.06.61 4.13 1.27 6.19 1.98 1.75.61 3.5 1.25 5.23 1.92.63.25 1.27.5 1.91.77.57.23 1.15.47 1.72.71 3.2 1.36 6.37 2.83 9.49 4.44 31.19 15.99 58.19 44.22 80.72 84.33 1 1.78 2 3.59 2.98 5.43q3.465 6.435 6.77 13.26 6.555 13.47 12.51 28.44 1.365 3.39 2.68 6.87c.39 1.03.78 2.06 1.17 3.1z"
  fill="#ccc" />
 <circle cx="8.002" cy="65.351" r="8" fill="#ffdd32" />
 <circle cx="157.535" cy="8.002" r="8" fill="#ffdd32" />
 <path fill="#3f3d56" d="M153.33 116.036l1.355-1.471 83.638 77.05-1.355 1.471z" />
 <circle cx="154.006" cy="115.299" r="5" fill="#ffdd32" />
 <path
  d="M236.426 58.662l-13.48 10.26-18.45 14.05a46.373 46.373 0 00-17.8 29.79l-3.37 21.24-.54 3.4-.42 2.66-.37 2.38-1.11 6.97a2.294 2.294 0 003.931 1.948 7.97 7.97 0 017.344-8.335c.525-15.642 9.012-22.635 21.875-24.873l.13-.15-.09.18c2.057 17.201-3.126 26.098-13.92 28.56l-.27.554c.088.167.177.333.253.509a7.987 7.987 0 01-5.603 10.995 2.294 2.294 0 00.07.622 2.317 2.317 0 003.44 1.36l2.31-1.43 1.77-1.09 1.37-.85 2.05-1.27 24.47-15.13a45.248 45.248 0 0020.13-27.44l5.8-22.81 4.18-16.42z"
  fill="#e6e6e6" />
 <circle cx="236.329" cy="191.83" r="5" fill="#ffdd32" />
 <path
  d="M667.596 330.432l-1.15-15.39v-.01l-.58-7.73a46.39 46.39 0 00-15.28-31.15l-.12-.1-.01-.01-27.44-24.73a2.26 2.26 0 00-2.76-.25 2.186 2.186 0 00-.56.48 2.21 2.21 0 00-.416.764 7.981 7.981 0 012.584 10.65l.882 3.136v.01c9.155 6.836 11.387 17.132 8.41 30.03l.06.2-.1-.17c-11.76-6.994-18.794-16.207-17.6-29.279a7.985 7.985 0 01-6.42-9.532 2.19 2.19 0 00-.65-.099 2.06 2.06 0 00-.6.08 2.255 2.255 0 00-1.71 2.17l-.84 37.58a45.218 45.218 0 0012.03 31.83l3.1 3.35 12.87 13.94 11.49 12.45 22-9.55.01-.01 4.06-1.76z"
  fill="#ccc" />
 <circle cx="192.713" cy="150.47" r="5.763" fill="#ffdd32" />
 <circle cx="215.849" cy="114.593" r="4" fill="#3f3d56" />
 <path fill="#3f3d56" d="M616.666 257.452l-.48.18-1.39.54-2.74-7.12-11.04-28.69-.02-.04-4.94-12.86h-.01l-1.58-4.12 1.87-.72 1.72 4.46 16.02 41.65 2.59 6.72z" />
 <path
  d="M598.166 209.042a.498.498 0 01-.11.04 5.035 5.035 0 01-2 .38h-.01a5.13 5.13 0 01-1.82-.4 5.005 5.005 0 01-2.63-2.61 4.942 4.942 0 01-.35-2.82 5.006 5.006 0 019.17-1.84 4.745 4.745 0 01.35.67 5 5 0 01-2.6 6.58zM620.927 261.253a.287.287 0 01-.04.085v.007a5.806 5.806 0 01-.816 1.296 6.138 6.138 0 01-2.306 1.742 6.2 6.2 0 01-3.16.478v-.008a6.154 6.154 0 01-4.95-3.67 6.067 6.067 0 01-.41-3.592 6.141 6.141 0 013.601-4.519c.108-.046.224-.092.332-.13.131-.047.262-.093.393-.132a6.42 6.42 0 011.118-.224 4.287 4.287 0 01.44-.023 5.97 5.97 0 012.575.486 6.241 6.241 0 011.403.817v.008a5.173 5.173 0 01.586.509v.008a6.275 6.275 0 011.272 1.881 6.12 6.12 0 01-.038 4.98z"
  fill="#ffdd32" />
 <circle cx="633.161" cy="299.6" r="4" fill="#3f3d56" />
 <path fill="#3f3d56" d="M552.916 130.852l-.61 1.9-5.09-1.64-26.94-8.67-9.75-3.14-9.49-3.05-1.95-.63-2.75-.89-10.94-3.52-1.49-.47-4.93-1.59-11.48-3.7-.57-.18-87.981-28.32-5.379-1.73.61-1.9 5.09 1.64 101.56 32.69 4.07 1.31 1.14.36 2.9.94 8.91 2.86 1.48.48 1.42.46 46.79 15.06 5.38 1.73z" />
 <path
  d="M501.036 114.862a2.188 2.188 0 00-.26-.77l-.03-.03a2.23 2.23 0 00-1.27-1.01.599.599 0 00-.18-.04h-.003a7.98 7.98 0 01-7.683 8.705l-.004.006c.534 14.78-4.299 25.597-19.46 28.79l-.12.17.06-.19c-8.309-14.154.342-24.53 11.627-34.32a8 8 0 012.603-8.672v-.008a2.286 2.286 0 00-.94-1.38 2.252 2.252 0 00-2.76.09l-1.79 1.45-.4.32-.05.05-1.4 1.13-.51.41-25.07 20.3a45.23 45.23 0 00-16.5 29.75l-2.87 23.37-2.07 16.819 25.49 12.56 12.08-11.89 16.52-16.27a46.377 46.377 0 0013.9-31.8l1.07-35.37.02-.78.03-.94a3.187 3.187 0 00-.03-.45z"
  fill="#ccc" />
 <circle cx="374.27" cy="75.188" r="5" fill="#ffdd32" />
 <circle cx="552.211" cy="130.884" r="5" fill="#ffdd32" />
 <circle cx="470.787" cy="154.274" r="4" fill="#3f3d56" />
 <path
  d="M808.386 174.562c-.45-.5-.9-.98-1.36-1.46-11.31-11.89-26.09-18.94-39.89-18.94q-3.84 0-7.35.35-14.535 1.425-23.25 8.76-12.87 10.83-12.9 34.39c0 .87-.05 2.49-.13 4.64-.51 12.53-2.37 43.06-4.04 47.58-2.71 7.36-5.06 13.72-1.56 18.53 2.04 2.81 6.05 4.85 12.31 6.17 1.15.25 2.37.47 3.67.65a139.91 139.91 0 0020.27 1.2c.89 0 1.78 0 2.71-.02h.01c3.21-.02 6.64-.11 10.28-.25 8.51-.33 19.18-1 28.76-3.21h.01c1.25-.28 2.48-.6 3.68-.94l.22-.06.1-.2a28.291 28.291 0 002.87-11.17 24.5 24.5 0 013.98 8.24l.15.57.54-.25a25.87 25.87 0 0010.62-8.44 27.051 27.051 0 004.54-12.99c1.37-12.62-3.82-61.53-14.24-73.15zM811.754 580.66h-59.93l-10.05-49.69-3.26 49.69h-55.67c-.03-36.828-11.286-77.843 5.571-111.672.877-1.76 12.481-4.14.519-5.159l.69-2.35 1.09-3.76.69-2.36s2.696-2.254.879-3.018.925-3.179.925-3.179l9.715-33.363.91-3.14h69.37a101.545 101.545 0 0111.01 12.16c1.13 1.44 2.31 3 3.52 4.68.84 1.19 1.71 2.44 2.58 3.75a125.997 125.997 0 0117.1 37.6v.01q.915 3.435 1.62 7.03v.01c.42 2.13.79 4.29 1.08 6.5.22 1.61.41 3.24.55 4.89a112.103 112.103 0 01-.87 27.42z"
  fill="#2f2e41" />
 <path
  d="M744.035 249.47l33.016-1.7L792.386 272s28.853 4.824 26.853 38.824-35.105 63.835-35.105 63.835l25.415 73.706-2.458 7.023.315 3.943 3.353 4.176.345 4.32-2.97 6.832 4.04 6.543c-29.084 7.26-48.71-.128-59.125-21.78-11.938-29.796-32.044-32.637-56.583-20.845l3.668-32.918 4.53-6.075-2.53-7.925 3.804-7.622 1.984-24.21s-21.704-32.608 3.212-57.168l10-17 11.189-13.65z"
  fill="#ffdd32" />
 <circle cx="760.449" cy="207.644" r="34.984" fill="#ffb6b6" />
 <path
  d="M783.436 164.162h-34.25a40.207 40.207 0 00-12.65-.89 26.552 26.552 0 00-14.3 5.53c-6.13 4.92-9.51 12.76-9.51 22.08a45.714 45.714 0 00.92 8.87l.06.31.3.08q4.74 1.215 9.5 2.16c.76.15 1.53.3 2.3.44 4.16.77 8.32 1.38 12.45 1.82l.23.03.17-.15a28.326 28.326 0 006.87-9.71 24.425 24.425 0 01.73 9.97l-.07.54.54.03q4.514.255 9.04.25a163.34 163.34 0 0038.99-4.75c.84-.2 1.67-.41 2.5-.63l.38-.1v-21.68a14.216 14.216 0 00-14.2-14.2z"
  fill="#2f2e41" />
 <path d="M811.336 161.197a25.99 25.99 0 11-.38-7.77 24.673 24.673 0 00-10.99 4.42 14.92 14.92 0 0111.19 3.19c.06.05.12.1.18.16z" fill="#2f2e41" />
 <path
  d="M263.998 94.522a10.913 10.913 0 01-6.045-1.831c-19.193-1.53-31.762-9.744-37.527-24.833a11.042 11.042 0 01-4.774-7.332 10.914 10.914 0 012.094-8.51 11.212 11.212 0 0115.12-2.307l2.025 1.34a10.862 10.862 0 011.821-5.99l.144-.212a5.835 5.835 0 016.523-2.358 6.291 6.291 0 014.607 5.774 12.042 12.042 0 00.188 1.523 11.493 11.493 0 0016.972 7.79 6.43 6.43 0 016.274-.057 5.646 5.646 0 012.969 4.815 10.974 10.974 0 01-6.62 10.472l2.035 1.347a11.234 11.234 0 013.505 15.263 10.923 10.923 0 01-6.992 4.86 11.084 11.084 0 01-2.319.246zM452.858 230.324a5.936 5.936 0 01-1.74-.263 6.05 6.05 0 01-4.257-5.058l-.019-.135a11.498 11.498 0 00-18.212-7.54 5.926 5.926 0 01-9.3-3.774 10.977 10.977 0 015.235-11.267l-2.5-1.232a11.038 11.038 0 01-5.663-6.668 10.915 10.915 0 011.002-8.707 11.209 11.209 0 0114.708-4.2c17.385-2.413 30.665 4.311 40.042 19.733a11.039 11.039 0 015.663 6.668 10.915 10.915 0 01-1.003 8.706 11.21 11.21 0 01-14.707 4.2l-2.178-1.073a10.852 10.852 0 01-1.049 6.172 10.982 10.982 0 01-1.633 2.437 5.848 5.848 0 01-4.39 2zM647.515 376.628a7.334 7.334 0 01-6.787-4.355l-.067-.152a10.855 10.855 0 01-.753-6.216l-2.557 1.11a11.001 11.001 0 01-14.553-5.895 11.236 11.236 0 016.104-14.421c7.163-16.54 20.293-23.108 40.623-17.653a11.217 11.217 0 0114.49 4.9 10.913 10.913 0 01.583 8.744 11.044 11.044 0 01-5.975 6.39l-2.556 1.11a10.858 10.858 0 014.03 4.792q.184.423.33.852a7.304 7.304 0 01-2.052 7.826 7.579 7.579 0 01-8.282 1.39 11.38 11.38 0 00-4.564-.974h-.057a11.725 11.725 0 00-10.171 6.397 11.87 11.87 0 00-.604 1.294 7.59 7.59 0 01-6.983 4.86l-.2.001z"
  fill="#3f3d56" />
 <path d="M797.806 295.878a15.666 15.666 0 00-20.008 15.777L739.16 389.84l-55.437-12.448a15.297 15.297 0 10-4.7 17.335c13.189 7.594 72.962 40.352 85.648 17.895 10.663-18.877 45.047-81.415 44.436-102.149a15.668 15.668 0 00-11.301-14.595z" fill="#ffb6b6" />
 <circle cx="490.881" cy="112.98" r="5.595" fill="#ffdd32" />
</svg>