<svg xmlns="http://www.w3.org/2000/svg" data-name="Layer 1" width="616.258" height="629" viewBox="0 0 616.258 629">
 <path
  d="M135.025 240.002c-20.785-27.815-58.827-34.528-77.73-20.402s-23.247 52.51-2.462 80.325c19.24 25.747 54.096 32.769 73.295 23.123a2.411 2.411 0 00-.011.914l1.082 5.351a2.442 2.442 0 003.896 1.44l9.166-7.16a2.442 2.442 0 00-.454-4.13l-4.93-2.345a2.417 2.417 0 00-.543-.17c14.799-15.645 17.972-51.143-1.31-76.946z"
  fill="#ccc" />
 <path d="M89.56 229.5a40.17 40.17 0 0133.643 43.919c-.223 2.345 3.44 2.33 3.663 0a43.923 43.923 0 00-36.333-47.45c-2.305-.392-3.296 3.137-.973 3.531z" fill="#fff" />
 <path
  d="M612.597 274.828c11.184-32.873-4.795-68.043-27.135-75.644s-56.453 10.527-67.638 43.4c-10.352 30.428 3.57 63.145 22.384 73.523a2.411 2.411 0 00-.76.508l-3.801 3.92a2.442 2.442 0 001.016 4.027l11.09 3.51a2.442 2.442 0 003.148-2.71l-.855-5.393a2.417 2.417 0 00-.166-.544c21.272 3.356 52.342-14.103 62.717-44.597z"
  fill="#ccc" />
 <path d="M595.544 231.393a40.17 40.17 0 01-17.192 52.585c-2.06 1.142.025 4.155 2.071 3.02a43.923 43.923 0 0018.585-56.8c-.981-2.122-4.451-.943-3.464 1.195z" fill="#fff" />
 <path
  d="M349.846 60.65C348.326 25.96 320.665-1.004 297.089.03S248.315 30.34 249.834 65.03c1.407 32.11 26.262 57.536 47.56 60.373a2.411 2.411 0 00-.524.749l-2.118 5.032a2.442 2.442 0 002.41 3.383l11.607-.758a2.442 2.442 0 001.949-3.668l-2.755-4.714a2.417 2.417 0 00-.352-.446c21.038-4.6 43.644-32.152 42.235-64.332z"
  fill="#ffdd32" />
 <path d="M318.182 26.376a40.17 40.17 0 013.081 55.238c-1.504 1.812 1.532 3.862 3.027 2.062a43.923 43.923 0 00-3.315-59.67c-1.685-1.623-4.49.736-2.793 2.37z" fill="#fff" />
 <circle cx="351.752" cy="312.489" r="49.752" fill="#ffdd32" />
 <path
  d="M349.49 627.948h-13.72a6.05 6.05 0 01-6.043-6.042V507.55a6.05 6.05 0 016.043-6.043h13.72a6.05 6.05 0 016.043 6.043v114.355a6.05 6.05 0 01-6.043 6.042zM393.44 627.948h-13.72a6.05 6.05 0 01-6.043-6.042V507.55a6.05 6.05 0 016.042-6.043h13.72a6.05 6.05 0 016.043 6.043v114.355a6.05 6.05 0 01-6.042 6.042zM315.186 409.197l-5.885 12.394a6.05 6.05 0 01-8.05 2.866L197.95 375.4a6.05 6.05 0 01-2.866-8.05l5.886-12.394a6.05 6.05 0 018.05-2.866l103.3 49.055a6.05 6.05 0 012.865 8.05z"
  fill="#ffdd32" />
 <path d="M330.749 415.84a5.995 5.995 0 01-.631 4.13l-6.631 12.011a6.05 6.05 0 01-8.211 2.37l-48.542-21.4a6.048 6.048 0 01-2.369-8.21l12.164-22.756a6.042 6.042 0 018.21-2.369l43.597 28.82c1.413.78 1.85 5.387 2.298 6.938a6.1 6.1 0 01.115.466z" fill="#2f2e41" />
 <path d="M390.432 401.146l103.298-49.055a6.05 6.05 0 018.05 2.866l5.886 12.394a6.05 6.05 0 01-2.866 8.05l-103.298 49.056a6.05 6.05 0 01-8.05-2.866l-5.886-12.394a6.05 6.05 0 012.866-8.05z" fill="#ffdd32" />
 <path
  d="M372.118 415.374c.448-1.55.885-6.158 2.298-6.938l43.597-28.82a6.042 6.042 0 018.21 2.37l12.164 22.755a6.048 6.048 0 01-2.369 8.21l-48.542 21.4a6.05 6.05 0 01-8.21-2.37l-6.632-12.01a5.995 5.995 0 01-.63-4.13c.031-.157.069-.312.114-.467zM345.129 330.928l-.052-1.859c3.459-.096 6.508-.313 8.8-1.987a5.715 5.715 0 002.213-4.21 3.267 3.267 0 00-1.071-2.69c-1.521-1.285-3.969-.87-5.753-.051l-1.538.705 2.95-21.558 1.842.252-2.51 18.338a6.563 6.563 0 016.209.894 5.086 5.086 0 011.73 4.176 7.56 7.56 0 01-2.976 5.645c-2.944 2.152-6.77 2.26-9.844 2.345zM361.629 301.112h10.013v1.859h-10.013zM330.023 301.112h10.013v1.859h-10.013z"
  fill="#2f2e41" />
 <path
  d="M368.903 385.494h2.006a6.104 6.104 0 100-12.208h-39.066a6.104 6.104 0 000 12.208h3.67c-31.353 14.265-51.47 66.955-51.47 99.79 0 38.252 27.606 50.591 68.166 50.591s78.712-12.339 78.712-50.59c0-32.836-28.338-85.526-62.018-99.79zM349.703 284.075c-1.212-3.684-5.585-4.815-8.951-3.425-3.947 1.63-6.185 5.667-9.997 7.575-6.856 3.433-15.952 1.59-21.179-3.912-5.716-6.017-6.842-15.406-3.965-23.002 2.975-7.856 10.355-13.542 18.257-15.851 10.5-3.07 21.766-.253 30.86 5.407a1.848 1.848 0 002.69-1.094c2.501-9.555 13.29-12.336 21.958-11.311a53.08 53.08 0 0123.712 9.463c13.553 9.455 23.106 24.855 24.445 41.435a58.686 58.686 0 01-17.45 46.332c-3.056 2.949-6.616 5.267-9.73 8.14-2.837 2.617-5.634 6.06-5.577 10.133.13 9.367 12.455 11.95 19.75 12.231a37.291 37.291 0 0038.399-30.836 38.541 38.541 0 00.602-6.585c.01-2.357-3.652-2.36-3.663 0a34.54 34.54 0 01-9.777 23.814 33.922 33.922 0 01-24.349 9.972c-5.823-.03-21.6-2.79-16.312-12.002 2.067-3.601 5.777-6.054 8.975-8.56a56.152 56.152 0 009.004-8.889 62.398 62.398 0 0013.348-47.612c-2.361-16.515-12.375-31.438-25.997-40.862-12.97-8.972-36.942-16.908-48.278-1.362a16.437 16.437 0 00-2.592 5.525l2.69-1.094c-8.762-5.454-19.206-8.283-29.504-6.705a32.954 32.954 0 00-22.14 13.765 26.96 26.96 0 00-2.39 25.342 22.264 22.264 0 0019.953 13.473 20.382 20.382 0 0012.894-3.947c2.086-1.59 3.688-3.842 5.946-5.197 1.294-.776 4.2-1.32 4.836.612.734 2.23 4.272 1.275 3.532-.973z"
  fill="#2f2e41" />
 <path
  d="M432.715 103.274a57.623 57.623 0 0145.07 26.698c1.365 2.181 3.146 4.578 2.201 7.263a4.775 4.775 0 01-4.948 3.305c-2.785-.34-4.582-3.064-4.925-5.674-.39-2.961 1.7-5.286 4.28-6.386 6.302-2.689 12.66 1.466 17.795 4.782 11.698 7.556 24.565 14.389 38.74 15.25 13.115.797 27.18-4.346 34.474-15.72 1.277-1.989-1.892-3.828-3.162-1.848-7.235 11.28-21.86 15.331-34.577 13.588a67.219 67.219 0 01-21.636-7.346c-3.495-1.814-6.885-3.825-10.206-5.938a65.129 65.129 0 00-10.011-5.74c-5.838-2.397-13.565-2.21-17.643 3.311-3.804 5.15-.864 13.725 5.498 15.173 6.03 1.373 11.312-4.298 10.071-10.227-.634-3.033-2.918-6.002-4.686-8.48a61.29 61.29 0 00-46.336-25.673c-2.355-.117-2.35 3.546 0 3.662zM132.985 160.798a57.623 57.623 0 01-45.07-26.698c-1.365-2.181-3.146-4.578-2.202-7.263a4.775 4.775 0 014.948-3.305c2.785.34 4.582 3.064 4.925 5.674.39 2.961-1.7 5.286-4.279 6.386-6.302 2.689-12.661-1.466-17.795-4.782-11.699-7.556-24.566-14.389-38.74-15.25-13.116-.797-27.18 4.346-34.475 15.72-1.276 1.989 1.893 3.828 3.163 1.848 7.234-11.28 21.86-15.331 34.577-13.588a67.219 67.219 0 0121.635 7.346c3.495 1.814 6.885 3.825 10.207 5.938a65.13 65.13 0 0010.01 5.74c5.838 2.397 13.566 2.21 17.643-3.311 3.804-5.15.864-13.725-5.498-15.173-6.03-1.373-11.312 4.298-10.071 10.227.635 3.033 2.919 6.002 4.687 8.48a61.29 61.29 0 0046.335 25.673c2.356.117 2.35-3.546 0-3.662z"
  fill="#ccc" />
 <path d="M555.347 629h-381a1 1 0 010-2h381a1 1 0 010 2z" fill="#3f3d56" />
</svg>