<svg xmlns="http://www.w3.org/2000/svg" data-name="Layer 1" width="626.477" height="457.638" viewBox="0 0 626.477 457.638">
 <circle cx="167.361" cy="184.727" r="161" fill="#f2f2f2" />
 <path
  d="M432.931 182.08l-35.396 30.43-55.475 47.671-7.498 6.447a6.8 6.8 0 00-2.375 4.683 6.89 6.89 0 00.797 3.765 6.821 6.821 0 00.84 1.217l4.022 4.684 6.123 7.122c.113.126.22.244.34.363a6.865 6.865 0 009.327.36l62.906-54.052 35.47-30.487a6.865 6.865 0 00.722-9.667l-2.14-2.489-7.998-9.31a6.845 6.845 0 00-9.665-.736z"
  fill="#ffdd32" />
 <circle cx="459.906" cy="100.048" r="56.432" fill="#ffdd32" />
 <path
  d="M464.053 319.19v129.705a6.86 6.86 0 006.854 6.854h15.563a6.86 6.86 0 006.854-6.854V319.19a6.86 6.86 0 00-6.854-6.854h-15.563a6.86 6.86 0 00-6.854 6.854zM431.166 319.19v129.705a6.853 6.853 0 006.854 6.854h15.563a6.86 6.86 0 006.853-6.854V319.19a6.86 6.86 0 00-6.853-6.854H438.02a6.853 6.853 0 00-6.854 6.854zM412.251 124.994l.059-2.11c-3.923-.108-7.382-.354-9.981-2.253a6.483 6.483 0 01-2.511-4.775 3.706 3.706 0 011.215-3.052c1.726-1.457 4.502-.985 6.525-.058l1.745.8-3.346-24.452-2.09.286 2.847 20.8c-2.75-.808-5.297-.46-7.042 1.013a5.769 5.769 0 00-1.961 4.737 8.575 8.575 0 003.374 6.404c3.34 2.44 7.68 2.562 11.166 2.66zM418.028 91.174h11.358v2.109h-11.358z"
  fill="#2f2e41" />
 <path
  d="M474.65 192.618l1.94 46.637 3.026 73.082.412 9.88a6.8 6.8 0 002.203 4.766 6.89 6.89 0 003.448 1.708 6.821 6.821 0 001.476.095l6.169-.253 9.384-.39c.169-.011.327-.021.496-.043a6.865 6.865 0 006.063-7.096l-3.427-82.867-1.94-46.732a6.865 6.865 0 00-7.139-6.558l-3.28.137-12.262.506a6.845 6.845 0 00-6.569 7.128z"
  fill="#ffdd32" />
 <path
  d="M469.916 196.561v35.85a6.85 6.85 0 006.674 6.844.97.97 0 00.18.01h25.306a6.568 6.568 0 001.212-.116 6.755 6.755 0 002.552-1.012 6.883 6.883 0 003.09-5.725v-35.85a19.53 19.53 0 00-19.507-19.507 19.073 19.073 0 00-3.986.41 19.538 19.538 0 00-15.521 19.096zM395.98 211.524a6.777 6.777 0 001.254 2.33l16.028 19.58a5.68 5.68 0 00.98.97 6.85 6.85 0 008.668-.01l27.742-22.702a19.508 19.508 0 10-24.716-30.188l-27.742 22.702a6.89 6.89 0 00-2.214 7.318zM443.25 66.619a8.73 8.73 0 01-17.32-1.428 1.508 1.508 0 00-2.946-.399c-2.066 5.314-7.376 8.95-12.928 9.729a16.277 16.277 0 01-15.29-6.87 17.91 17.91 0 01-2.332-16.979 20.223 20.223 0 0112.815-12.018 21.203 21.203 0 0120.15 4.658 1.514 1.514 0 002.507-.661c2.819-14.898 12.954-27.84 26.4-34.711 13.741-7.023 30.125-6.387 43.713.707a48.858 48.858 0 0117.128 14.638c5.308 7.405 8.035 16.177 10.598 24.815 4.487 15.123 10.055 33.237 25.976 39.951a28.176 28.176 0 0039.004-25.94 1.5 1.5 0 00-3 0 25.082 25.082 0 01-34.469 23.351c-7.38-2.934-12.721-9.31-16.439-16.119-4.174-7.643-6.375-16.085-8.875-24.37-2.546-8.436-5.494-16.963-10.846-24.076a52.251 52.251 0 00-17.242-14.672c-13.64-7.239-29.907-8.398-44.156-2.244a53.37 53.37 0 00-29.348 32.496 47.672 47.672 0 00-1.336 5.376l2.507-.662a24.397 24.397 0 00-20.502-6.027 23.05 23.05 0 00-16.463 12.378 20.87 20.87 0 00.643 20.136c3.55 5.957 9.972 10.142 17.023 9.984a19.49 19.49 0 0017.655-12.072l-2.947-.4a11.727 11.727 0 0023.213 2.226c.404-1.882-2.487-2.687-2.893-.797z"
  fill="#2f2e41" />
 <path fill="#2f2e41" d="M516.361 341.727h-113l36-159h39l38 159z" />
 <path
  d="M262.024 334.025c20.669-.586 40.644-8.519 56.65-21.497a90.955 90.955 0 0032.003-51.746 97.249 97.249 0 00-7.703-61.516 90.051 90.051 0 00-44.115-42.787 96.29 96.29 0 00-60.854-6.407 87.302 87.302 0 00-7.568 2.122c-2.276.747-1.301 4.359.994 3.605 19.116-6.274 40.03-5.524 58.914 1.238a87.176 87.176 0 0145.638 37.11 93.547 93.547 0 0112.262 58.52 86.48 86.48 0 01-26.391 52.09c-14.23 13.59-32.928 22.816-52.545 25.025-2.42.273-4.85.435-7.285.504-2.4.068-2.41 3.808 0 3.74z"
  fill="#3f3d56" />
 <path
  d="M226.235 117.199l-33.58 28.552c-2.196 1.866-4.8 3.792-5.393 6.797a7.555 7.555 0 002.622 6.846c2.18 2.073 4.956 3.39 7.564 4.825l9.76 5.366 21.688 11.926c2.11 1.16 3.999-2.068 1.887-3.23-11.752-6.461-23.68-12.683-35.283-19.409-1.757-1.018-4.52-2.664-4.624-4.977-.113-2.478 3.269-4.52 4.896-5.903l15.607-13.27 17.5-14.879c1.836-1.56-.82-4.195-2.644-2.644zM95.937 43.28C70.78 47.56 47.74 60.7 30.418 79.32 12.961 98.086 1.888 122.424.236 148.075A120.017 120.017 0 0020.26 221.92a111.134 111.134 0 0061.29 44.677c24.604 7.18 51.478 6.563 75.469-2.668 3.02-1.162 5.98-2.469 8.883-3.897 2.652-1.306.838-5.552-1.837-4.235-22.277 10.964-47.965 13.656-72.207 8.65-24.321-5.024-46.576-18.074-62.172-37.478a115.448 115.448 0 01-25.078-69.397 106.726 106.726 0 0123.265-68.207c15.044-19.06 36.303-33.56 59.894-39.644 2.91-.75 5.852-1.367 8.815-1.871 2.922-.498 2.29-5.07-.645-4.57z"
  fill="#3f3d56" />
 <path
  d="M177.073 302.07l36.11-40.683c2.361-2.66 5.212-5.463 5.418-9.237.18-3.298-1.801-6.068-4.386-7.913-3.021-2.158-6.64-3.29-10.075-4.592l-12.852-4.874-28.56-10.832c-2.779-1.054-4.53 3.217-1.75 4.271 15.477 5.87 31.126 11.416 46.465 17.633 2.323.941 5.982 2.475 6.51 5.284.564 3.01-3.216 6.087-4.966 8.058l-16.783 18.909-18.818 21.2c-1.975 2.225 1.725 4.985 3.687 2.775zM625.558 457.638H288.086a.92.92 0 010-1.838h337.472a.92.92 0 110 1.838z"
  fill="#3f3d56" />
</svg>